#N canvas 1 267 1060 477 10;
#X obj 142 -163 s NOTE;
#X obj 500 -331 r NOTE;
#N canvas 680 414 659 323 TECLAS 0;
#X obj 103 -192 key;
#X obj 302 73 outlet;
#X obj 233 26 t b a;
#X msg 10 -82 0;
#X msg 39 -82 1;
#X msg 71 -80 2;
#X msg 96 -79 3;
#X msg 123 -81 4;
#X msg 155 -85 5;
#X msg 184 -83 6;
#X msg 213 -83 7;
#X msg 249 -82 8;
#X msg 285 -81 9;
#X msg 321 -79 10;
#X msg 351 -79 11;
#X floatatom 499 -186 5 0 0 0 - - -;
#X obj 497 -75 s octaDown;
#X obj 553 -121 s octaUp;
#X obj 532 -98 s octaReal;
#X msg 386 -78 12;
#X msg 450 -75 14;
#X msg 415 -75 13;
#X obj 103 -162 sel 49 50 51 52 53 54 55 56 57 48 113 119 101 114 112
122 120 99;
#X obj 183 75 outlet;
#X connect 0 0 15 0;
#X connect 0 0 22 0;
#X connect 2 0 23 0;
#X connect 2 1 1 0;
#X connect 3 0 2 0;
#X connect 4 0 2 0;
#X connect 5 0 2 0;
#X connect 6 0 2 0;
#X connect 7 0 2 0;
#X connect 8 0 2 0;
#X connect 9 0 2 0;
#X connect 10 0 2 0;
#X connect 11 0 2 0;
#X connect 12 0 2 0;
#X connect 13 0 2 0;
#X connect 14 0 2 0;
#X connect 19 0 2 0;
#X connect 20 0 2 0;
#X connect 21 0 2 0;
#X connect 22 0 3 0;
#X connect 22 1 4 0;
#X connect 22 2 5 0;
#X connect 22 3 6 0;
#X connect 22 4 7 0;
#X connect 22 5 8 0;
#X connect 22 6 9 0;
#X connect 22 7 10 0;
#X connect 22 8 11 0;
#X connect 22 9 12 0;
#X connect 22 10 13 0;
#X connect 22 11 14 0;
#X connect 22 12 19 0;
#X connect 22 13 21 0;
#X connect 22 14 20 0;
#X connect 22 15 16 0;
#X connect 22 16 18 0;
#X connect 22 17 17 0;
#X restore 1010 -204 pd TECLAS;
#X obj 1065 -172 spigot;
#X obj 1114 -203 tgl 15 0 empty empty empty 17 7 0 10 -262144 -1 -1
1 1;
#X obj 500 -298 nbx 5 30 -1e+37 1e+37 0 0 empty empty empty 0 -8 0
30 -262144 -1 -1 120.967 256;
#X obj 1010 -142 hradio 15 1 0 15 empty empty empty 0 -8 0 10 -262144
-1 -1 12;
#X obj 141 -291 fiddle~ 1024 1 20 3;
#X obj 148 -265 mtof;
#X obj 135 -328 adc~;
#X obj 144 -223 spigot;
#X obj 195 -223 tgl 15 0 empty empty empty 17 7 0 10 -262144 -1 -1
0 1;
#X obj 237 -272 key;
#X obj 208 -246 sel 32;
#X text 498 -256 FUNDAMENTAL FREQUENCY DETECTED;
#X obj 21 -270 hsl 40 15 0 100 0 0 empty empty empty -2 -8 0 10 -262144
-1 -1 2429 1;
#X obj 27 -290 env~;
#X obj 1114 -229 loadbang;
#X text -33 -252 check if sound is entering;
#X obj 257 70 *~ 0;
#X obj 461 82 vsl 15 60 0 1 0 0 empty empty empty 0 -9 0 10 -258113
-1 -1 5100 1;
#X obj 253 232 dac~;
#X text 325 214 OUTPUT;
#X text 138 131 VOLUME geral;
#N canvas 0 0 276 283 tone3rd_min 0;
#X obj 28 -13 osc~;
#X obj 65 13 *~;
#X obj 28 -197 r NOTE;
#X obj 65 47 outlet~;
#X obj 74 -173 expr $f1 * 7/6;
#X obj 158 -148 inlet;
#X text 230 -198 3rd_min;
#N canvas 577 61 450 300 ATACKDECACY 0;
#X obj 90 -20 bng 15 250 50 0 empty empty empty 17 7 0 10 -262144 -1
-1;
#X obj 153 33 delay 500;
#X obj 103 113 line~;
#X msg 149 62 0 200;
#X obj 89 5 t b b;
#X obj 186 -7 r duration;
#X obj 203 92 pack f f;
#X msg 92 54 1;
#X obj 266 62 r attack;
#X obj 81 -65 inlet;
#X obj 87 155 outlet~;
#X connect 0 0 4 0;
#X connect 1 0 3 0;
#X connect 2 0 10 0;
#X connect 3 0 2 0;
#X connect 4 0 7 0;
#X connect 4 1 1 0;
#X connect 5 0 1 1;
#X connect 6 0 2 0;
#X connect 7 0 6 0;
#X connect 8 0 6 1;
#X connect 9 0 0 0;
#X restore 169 -63 pd ATACKDECACY;
#X connect 0 0 1 0;
#X connect 1 0 3 0;
#X connect 2 0 4 0;
#X connect 4 0 0 0;
#X connect 5 0 7 0;
#X connect 7 0 1 1;
#X restore 129 -71 pd tone3rd_min;
#X obj 1065 -114 s tecla;
#X obj 585 -166 r tecla;
#N canvas 1 136 276 283 tone 0;
#X obj 38 -44 osc~;
#X obj 65 13 *~;
#X obj 34 -159 r NOTE;
#X obj 65 47 outlet~;
#X obj 158 -148 inlet;
#X text 230 -198 3rd_min;
#N canvas 861 198 450 300 ATACKDECAY 0;
#X obj 90 -20 bng 15 250 50 0 empty empty empty 17 7 0 10 -262144 -1
-1;
#X obj 153 33 delay 500;
#X obj 103 134 line~;
#X msg 97 84 0 200;
#X obj 89 5 t b b;
#X obj 186 -7 r duration;
#X obj 162 84 pack f f;
#X msg 52 37 1;
#X obj 240 53 r attack;
#X obj 81 -65 inlet;
#X obj 102 169 outlet~;
#X connect 0 0 4 0;
#X connect 1 0 3 0;
#X connect 2 0 10 0;
#X connect 3 0 2 0;
#X connect 4 0 7 0;
#X connect 4 1 1 0;
#X connect 5 0 1 1;
#X connect 6 0 2 0;
#X connect 7 0 6 0;
#X connect 8 0 6 1;
#X connect 9 0 0 0;
#X restore 159 -73 pd ATACKDECAY;
#X floatatom 64 -116 5 0 0 0 - - -;
#X connect 0 0 1 0;
#X connect 1 0 3 0;
#X connect 2 0 0 0;
#X connect 2 0 7 0;
#X connect 4 0 6 0;
#X connect 6 0 1 1;
#X restore 0 -70 pd tone;
#X obj 511 105 s duration;
#N canvas 0 0 448 385 tone2nd 0;
#X obj 28 -13 osc~;
#X obj 65 13 *~;
#X obj 34 -159 r NOTE;
#X obj 65 47 outlet~;
#X obj 158 -148 inlet;
#X obj 11 -112 expr $f1 * 9/8;
#X text 125 -192 2nd;
#N canvas 577 61 450 300 ATACKDECACY 0;
#X obj 90 -20 bng 15 250 50 0 empty empty empty 17 7 0 10 -262144 -1
-1;
#X obj 153 33 delay 500;
#X obj 103 113 line~;
#X msg 149 62 0 200;
#X obj 89 5 t b b;
#X obj 186 -7 r duration;
#X obj 203 92 pack f f;
#X msg 92 54 1;
#X obj 266 62 r attack;
#X obj 81 -65 inlet;
#X obj 87 155 outlet~;
#X connect 0 0 4 0;
#X connect 1 0 3 0;
#X connect 2 0 10 0;
#X connect 3 0 2 0;
#X connect 4 0 7 0;
#X connect 4 1 1 0;
#X connect 5 0 1 1;
#X connect 6 0 2 0;
#X connect 7 0 6 0;
#X connect 8 0 6 1;
#X connect 9 0 0 0;
#X restore 149 -83 pd ATACKDECACY;
#X connect 0 0 1 0;
#X connect 1 0 3 0;
#X connect 2 0 5 0;
#X connect 4 0 7 0;
#X connect 5 0 0 0;
#X connect 7 0 1 1;
#X restore 54 -72 pd tone2nd;
#X obj 513 79 hsl 128 15 2 10000 0 0 empty empty empty -2 -8 0 10 -257985
-1 -1 0 1;
#X text 592 98 duration of tone played from 0 nto 10000;
#N canvas 348 83 323 311 tone3rd_maj 0;
#X obj 28 -13 osc~;
#X obj 65 13 *~;
#X obj 28 -197 r NOTE;
#X obj 65 47 outlet~;
#X obj 158 -148 inlet;
#X obj 14 -129 expr $f1 * 5/4;
#X text 168 -191 3rd_maj;
#N canvas 577 61 450 300 ATACKDECACY 0;
#X obj 90 -20 bng 15 250 50 0 empty empty empty 17 7 0 10 -262144 -1
-1;
#X obj 153 33 delay 500;
#X obj 103 113 line~;
#X msg 149 62 0 200;
#X obj 89 5 t b b;
#X obj 186 -7 r duration;
#X obj 203 92 pack f f;
#X msg 92 54 1;
#X obj 266 62 r attack;
#X obj 81 -65 inlet;
#X obj 87 155 outlet~;
#X connect 0 0 4 0;
#X connect 1 0 3 0;
#X connect 2 0 10 0;
#X connect 3 0 2 0;
#X connect 4 0 7 0;
#X connect 4 1 1 0;
#X connect 5 0 1 1;
#X connect 6 0 2 0;
#X connect 7 0 6 0;
#X connect 8 0 6 1;
#X connect 9 0 0 0;
#X restore 145 -61 pd ATACKDECACY;
#X connect 0 0 1 0;
#X connect 1 0 3 0;
#X connect 2 0 5 0;
#X connect 4 0 7 0;
#X connect 5 0 0 0;
#X connect 7 0 1 1;
#X restore 224 -70 pd tone3rd_maj;
#N canvas 0 0 276 283 tone4th 0;
#X obj 28 -13 osc~;
#X obj 65 13 *~;
#X obj 28 -197 r NOTE;
#X obj 65 47 outlet~;
#X obj 169 -109 inlet;
#X obj 33 -156 expr $f1 * 4/3;
#X text 164 -194 4th;
#N canvas 577 61 450 300 ATACKDECACY 0;
#X obj 90 -20 bng 15 250 50 0 empty empty empty 17 7 0 10 -262144 -1
-1;
#X obj 153 33 delay 500;
#X obj 103 113 line~;
#X msg 149 62 0 200;
#X obj 89 5 t b b;
#X obj 186 -7 r duration;
#X obj 203 92 pack f f;
#X msg 92 54 1;
#X obj 266 62 r attack;
#X obj 81 -65 inlet;
#X obj 87 155 outlet~;
#X connect 0 0 4 0;
#X connect 1 0 3 0;
#X connect 2 0 10 0;
#X connect 3 0 2 0;
#X connect 4 0 7 0;
#X connect 4 1 1 0;
#X connect 5 0 1 1;
#X connect 6 0 2 0;
#X connect 7 0 6 0;
#X connect 8 0 6 1;
#X connect 9 0 0 0;
#X restore 137 -52 pd ATACKDECACY;
#X obj 166 -151 bng 15 250 50 0 empty empty empty 17 7 0 10 -262144
-1 -1;
#X connect 0 0 1 0;
#X connect 1 0 3 0;
#X connect 2 0 5 0;
#X connect 2 0 8 0;
#X connect 4 0 7 0;
#X connect 5 0 0 0;
#X connect 7 0 1 1;
#X restore 320 -70 pd tone4th;
#N canvas 0 0 276 283 tone5th 0;
#X obj 28 -13 osc~;
#X obj 65 13 *~;
#X obj 28 -197 r NOTE;
#X obj 65 47 outlet~;
#X obj 158 -148 inlet;
#X obj 22 -151 expr $f1 * 3/2;
#X text 230 -198 5th;
#N canvas 577 61 450 300 ATACKDECACY 0;
#X obj 90 -20 bng 15 250 50 0 empty empty empty 17 7 0 10 -262144 -1
-1;
#X obj 153 33 delay 500;
#X obj 103 113 line~;
#X msg 149 62 0 200;
#X obj 89 5 t b b;
#X obj 186 -7 r duration;
#X obj 203 92 pack f f;
#X msg 92 54 1;
#X obj 266 62 r attack;
#X obj 81 -65 inlet;
#X obj 87 155 outlet~;
#X connect 0 0 4 0;
#X connect 1 0 3 0;
#X connect 2 0 10 0;
#X connect 3 0 2 0;
#X connect 4 0 7 0;
#X connect 4 1 1 0;
#X connect 5 0 1 1;
#X connect 6 0 2 0;
#X connect 7 0 6 0;
#X connect 8 0 6 1;
#X connect 9 0 0 0;
#X restore 142 -56 pd ATACKDECACY;
#X connect 0 0 1 0;
#X connect 1 0 3 0;
#X connect 2 0 5 0;
#X connect 4 0 7 0;
#X connect 5 0 0 0;
#X connect 7 0 1 1;
#X restore 394 -70 pd tone5th;
#N canvas 0 0 276 283 tone6th_maj 0;
#X obj 28 -13 osc~;
#X obj 65 13 *~;
#X obj 28 -197 r NOTE;
#X obj 65 47 outlet~;
#X obj 158 -148 inlet;
#X obj 28 -153 expr $f1 * 5/3;
#X text 174 -194 6th maj;
#N canvas 577 61 450 300 ATACKDECACY 0;
#X obj 90 -20 bng 15 250 50 0 empty empty empty 17 7 0 10 -262144 -1
-1;
#X obj 153 33 delay 500;
#X obj 103 113 line~;
#X msg 149 62 0 200;
#X obj 89 5 t b b;
#X obj 186 -7 r duration;
#X obj 203 92 pack f f;
#X msg 92 54 1;
#X obj 266 62 r attack;
#X obj 81 -65 inlet;
#X obj 87 155 outlet~;
#X connect 0 0 4 0;
#X connect 1 0 3 0;
#X connect 2 0 10 0;
#X connect 3 0 2 0;
#X connect 4 0 7 0;
#X connect 4 1 1 0;
#X connect 5 0 1 1;
#X connect 6 0 2 0;
#X connect 7 0 6 0;
#X connect 8 0 6 1;
#X connect 9 0 0 0;
#X restore 163 -39 pd ATACKDECACY;
#X connect 0 0 1 0;
#X connect 1 0 3 0;
#X connect 2 0 5 0;
#X connect 4 0 7 0;
#X connect 5 0 0 0;
#X connect 7 0 1 1;
#X restore 559 -69 pd tone6th_maj;
#N canvas 0 0 276 283 tone6th_min 0;
#X obj 28 -13 osc~;
#X obj 65 13 *~;
#X obj 28 -197 r NOTE;
#X obj 65 47 outlet~;
#X obj 158 -148 inlet;
#X obj 14 -159 expr $f1 * 8/5;
#X text 167 -195 6th min;
#N canvas 577 61 450 300 ATACKDECACY 0;
#X obj 90 -20 bng 15 250 50 0 empty empty empty 17 7 0 10 -262144 -1
-1;
#X obj 153 33 delay 500;
#X obj 103 113 line~;
#X msg 149 62 0 200;
#X obj 89 5 t b b;
#X obj 186 -7 r duration;
#X obj 203 92 pack f f;
#X msg 92 54 1;
#X obj 266 62 r attack;
#X obj 81 -65 inlet;
#X obj 87 155 outlet~;
#X connect 0 0 4 0;
#X connect 1 0 3 0;
#X connect 2 0 10 0;
#X connect 3 0 2 0;
#X connect 4 0 7 0;
#X connect 4 1 1 0;
#X connect 5 0 1 1;
#X connect 6 0 2 0;
#X connect 7 0 6 0;
#X connect 8 0 6 1;
#X connect 9 0 0 0;
#X restore 141 -52 pd ATACKDECACY;
#X connect 0 0 1 0;
#X connect 1 0 3 0;
#X connect 2 0 5 0;
#X connect 4 0 7 0;
#X connect 5 0 0 0;
#X connect 7 0 1 1;
#X restore 466 -70 pd tone6th_min;
#N canvas 0 0 276 283 tone7th 0;
#X obj 28 -13 osc~;
#X obj 65 13 *~;
#X obj 28 -197 r NOTE;
#X obj 65 47 outlet~;
#X obj 158 -148 inlet;
#X obj 18 -160 expr $f1 * 7/4;
#X text 152 -189 7th;
#N canvas 577 61 450 300 ATACKDECACY 0;
#X obj 90 -20 bng 15 250 50 0 empty empty empty 17 7 0 10 -262144 -1
-1;
#X obj 153 33 delay 500;
#X obj 103 113 line~;
#X msg 149 62 0 200;
#X obj 89 5 t b b;
#X obj 186 -7 r duration;
#X obj 203 92 pack f f;
#X msg 92 54 1;
#X obj 266 62 r attack;
#X obj 81 -65 inlet;
#X obj 87 155 outlet~;
#X connect 0 0 4 0;
#X connect 1 0 3 0;
#X connect 2 0 10 0;
#X connect 3 0 2 0;
#X connect 4 0 7 0;
#X connect 4 1 1 0;
#X connect 5 0 1 1;
#X connect 6 0 2 0;
#X connect 7 0 6 0;
#X connect 8 0 6 1;
#X connect 9 0 0 0;
#X restore 167 -46 pd ATACKDECACY;
#X connect 0 0 1 0;
#X connect 1 0 3 0;
#X connect 2 0 5 0;
#X connect 4 0 7 0;
#X connect 5 0 0 0;
#X connect 7 0 1 1;
#X restore 652 -68 pd tone7th;
#N canvas 0 0 276 283 tone8th_hiI 0;
#X obj 28 -13 osc~;
#X obj 65 13 *~;
#X obj 28 -197 r NOTE;
#X obj 65 47 outlet~;
#X obj 158 -148 inlet;
#X text 152 -189 7th;
#X obj 18 -160 expr $f1 * 2;
#N canvas 577 61 450 300 ATACKDECACY 0;
#X obj 90 -20 bng 15 250 50 0 empty empty empty 17 7 0 10 -262144 -1
-1;
#X obj 153 33 delay 500;
#X obj 103 113 line~;
#X msg 149 62 0 200;
#X obj 89 5 t b b;
#X obj 186 -7 r duration;
#X obj 203 92 pack f f;
#X msg 92 54 1;
#X obj 266 62 r attack;
#X obj 81 -65 inlet;
#X obj 87 155 outlet~;
#X connect 0 0 4 0;
#X connect 1 0 3 0;
#X connect 2 0 10 0;
#X connect 3 0 2 0;
#X connect 4 0 7 0;
#X connect 4 1 1 0;
#X connect 5 0 1 1;
#X connect 6 0 2 0;
#X connect 7 0 6 0;
#X connect 8 0 6 1;
#X connect 9 0 0 0;
#X restore 143 -69 pd ATACKDECACY;
#X connect 0 0 1 0;
#X connect 1 0 3 0;
#X connect 2 0 6 0;
#X connect 4 0 7 0;
#X connect 6 0 0 0;
#X connect 7 0 1 1;
#X restore 722 -68 pd tone8th_hiI;
#N canvas 110 77 301 335 tone9th 0;
#X obj 28 -13 osc~;
#X obj 65 13 *~;
#X obj 28 -197 r NOTE;
#X obj 65 47 outlet~;
#X obj 158 -148 inlet;
#X text 152 -189 7th;
#N canvas 577 61 450 300 ATACKDECACY 0;
#X obj 90 -20 bng 15 250 50 0 empty empty empty 17 7 0 10 -262144 -1
-1;
#X obj 153 33 delay 500;
#X obj 103 113 line~;
#X msg 149 62 0 200;
#X obj 89 5 t b b;
#X obj 186 -7 r duration;
#X obj 203 92 pack f f;
#X msg 92 54 1;
#X obj 266 62 r attack;
#X obj 81 -65 inlet;
#X obj 87 155 outlet~;
#X connect 0 0 4 0;
#X connect 1 0 3 0;
#X connect 2 0 10 0;
#X connect 3 0 2 0;
#X connect 4 0 7 0;
#X connect 4 1 1 0;
#X connect 5 0 1 1;
#X connect 6 0 2 0;
#X connect 7 0 6 0;
#X connect 8 0 6 1;
#X connect 9 0 0 0;
#X restore 141 -68 pd ATACKDECACY;
#X obj 18 -160 expr $f1 * 9/4;
#X connect 0 0 1 0;
#X connect 1 0 3 0;
#X connect 2 0 7 0;
#X connect 4 0 6 0;
#X connect 6 0 1 1;
#X connect 7 0 0 0;
#X restore 815 -69 pd tone9th;
#N canvas 0 0 276 283 tone10th_maj 0;
#X obj 28 -13 osc~;
#X obj 65 13 *~;
#X obj 28 -197 r NOTE;
#X obj 65 47 outlet~;
#X obj 158 -148 inlet;
#X obj 18 -160 expr $f1 * 5/2;
#X text 152 -189 10th maj;
#N canvas 577 61 450 300 ATACKDECACY 0;
#X obj 90 -20 bng 15 250 50 0 empty empty empty 17 7 0 10 -262144 -1
-1;
#X obj 153 33 delay 500;
#X obj 103 113 line~;
#X msg 149 62 0 200;
#X obj 89 5 t b b;
#X obj 186 -7 r duration;
#X obj 203 92 pack f f;
#X msg 92 54 1;
#X obj 266 62 r attack;
#X obj 81 -65 inlet;
#X obj 87 155 outlet~;
#X connect 0 0 4 0;
#X connect 1 0 3 0;
#X connect 2 0 10 0;
#X connect 3 0 2 0;
#X connect 4 0 7 0;
#X connect 4 1 1 0;
#X connect 5 0 1 1;
#X connect 6 0 2 0;
#X connect 7 0 6 0;
#X connect 8 0 6 1;
#X connect 9 0 0 0;
#X restore 152 -62 pd ATACKDECACY;
#X connect 0 0 1 0;
#X connect 1 0 3 0;
#X connect 2 0 5 0;
#X connect 4 0 7 0;
#X connect 5 0 0 0;
#X connect 7 0 1 1;
#X restore 887 -69 pd tone10th_maj;
#N canvas 0 0 450 300 (subpatch) 0;
#X array verSom 100 float 5;
#A 0 0 0 0 0 0 0 0 0 0 0 0 0 0 0 0 0 0 0 0 0 0 0 0 0 0 0 0 0 0 0 0
0 0 0 0 0 0 0 0 0 0 0 0 0 0 0 0 0 0 0 0 0 0 0 0 0 0 0 0 0 0 0 0 0 0
0 0 0 0 0 0 0 0 0 0 0 0 0 0 0 0 0 0 0 0 0 0 0 0 0 0 0 0 0 0 0 0 0 0
0;
#X coords 0 1 99 -1 200 140 1;
#X restore 874 125 graph;
#X obj 737 235 tabwrite~ verSom;
#X obj 738 167 metro 500;
#X obj 738 137 tgl 15 0 empty empty empty 17 7 0 10 -262144 -1 -1 1
1;
#X floatatom 789 139 5 0 0 0 - - -;
#N canvas 0 0 276 283 tone12th_perfect 0;
#X obj 28 -13 osc~;
#X obj 65 13 *~;
#X obj 28 -197 r NOTE;
#X obj 65 47 outlet~;
#X obj 158 -148 inlet;
#N canvas 577 61 450 300 ATACKDECACY 0;
#X obj 90 -20 bng 15 250 50 0 empty empty empty 17 7 0 10 -262144 -1
-1;
#X obj 153 33 delay 500;
#X obj 103 113 line~;
#X msg 149 62 0 200;
#X obj 89 5 t b b;
#X obj 186 -7 r duration;
#X obj 203 92 pack f f;
#X msg 92 54 1;
#X obj 266 62 r attack;
#X obj 81 -65 inlet;
#X obj 87 155 outlet~;
#X connect 0 0 4 0;
#X connect 1 0 3 0;
#X connect 2 0 10 0;
#X connect 3 0 2 0;
#X connect 4 0 7 0;
#X connect 4 1 1 0;
#X connect 5 0 1 1;
#X connect 6 0 2 0;
#X connect 7 0 6 0;
#X connect 8 0 6 1;
#X connect 9 0 0 0;
#X restore 155 -66 pd ATACKDECACY;
#X obj 18 -160 expr $f1 * 3;
#X text 152 -189 12th perfect;
#X connect 0 0 1 0;
#X connect 1 0 3 0;
#X connect 2 0 6 0;
#X connect 4 0 5 0;
#X connect 5 0 1 1;
#X connect 6 0 0 0;
#X restore 989 -69 pd tone12th_perfect;
#X obj 249 114 limiter~ 50 1;
#X obj 204 114 z~ 64;
#X obj 257 157 *~;
#X obj 254 207 *~ 0.9;
#X obj 312 233 send~ synth;
#X obj 512 129 hsl 128 15 1 1000 0 0 empty empty empty -2 -8 0 10 -159808
-1 -1 300 1;
#X obj 511 155 s attack;
#N canvas 1 80 476 313 octashift 0;
#X obj 38 -221 inlet;
#X obj 243 -212 r octaReal;
#X obj 320 -212 r octaDown;
#X obj 391 -213 r octaUp;
#X obj 142 -9 outlet;
#X obj 137 -103 demux 0 1 2;
#X obj 108 -61 / 2;
#X obj 142 -61 * 1;
#X obj 175 -60 * 2;
#X msg 270 -154 1;
#X msg 348 -161 0;
#X msg 416 -159 2;
#X obj 45 -141 f;
#X obj 41 -185 t b f;
#X obj 243 -181 t b b;
#X obj 322 -36 s nShift;
#X obj -22 -165 r nShift;
#X obj 320 -190 t b b;
#X obj 391 -187 t b b;
#X obj -23 -137 bng 15 250 50 0 empty empty empty 17 7 0 10 -262144
-1 -1;
#X connect 0 0 13 0;
#X connect 1 0 14 0;
#X connect 2 0 17 0;
#X connect 3 0 18 0;
#X connect 5 0 6 0;
#X connect 5 1 7 0;
#X connect 5 2 8 0;
#X connect 6 0 4 0;
#X connect 7 0 4 0;
#X connect 8 0 4 0;
#X connect 9 0 5 1;
#X connect 10 0 5 1;
#X connect 11 0 5 1;
#X connect 12 0 5 0;
#X connect 13 0 12 0;
#X connect 13 1 12 1;
#X connect 14 0 15 0;
#X connect 14 1 9 0;
#X connect 16 0 12 0;
#X connect 16 0 19 0;
#X connect 17 0 15 0;
#X connect 17 1 10 0;
#X connect 18 0 15 0;
#X connect 18 1 11 0;
#X restore 142 -193 pd octashift;
#X text 445 145 Volume;
#X obj 417 -134 demux 0 1 2 3 4 5 6 7 8 9 10 11 12 13 14;
#N canvas 1 79 450 300 tone8th_hiII 0;
#X obj 48 7 osc~;
#X obj 85 33 *~;
#X obj 48 -177 r NOTE;
#X obj 85 67 outlet~;
#X obj 178 -128 inlet;
#N canvas 577 61 450 300 ATACKDECACY 0;
#X obj 90 -20 bng 15 250 50 0 empty empty empty 17 7 0 10 -262144 -1
-1;
#X obj 153 33 delay 500;
#X obj 103 113 line~;
#X msg 149 62 0 200;
#X obj 89 5 t b b;
#X obj 186 -7 r duration;
#X obj 203 92 pack f f;
#X msg 92 54 1;
#X obj 266 62 r attack;
#X obj 81 -65 inlet;
#X obj 87 155 outlet~;
#X connect 0 0 4 0;
#X connect 1 0 3 0;
#X connect 2 0 10 0;
#X connect 3 0 2 0;
#X connect 4 0 7 0;
#X connect 4 1 1 0;
#X connect 5 0 1 1;
#X connect 6 0 2 0;
#X connect 7 0 6 0;
#X connect 8 0 6 1;
#X connect 9 0 0 0;
#X restore 175 -46 pd ATACKDECACY;
#X obj 38 -140 expr $f1 * 4;
#X text 172 -169 8th hiII;
#X connect 0 0 1 0;
#X connect 1 0 3 0;
#X connect 2 0 6 0;
#X connect 4 0 5 0;
#X connect 5 0 1 1;
#X connect 6 0 0 0;
#X restore 1129 -66 pd tone8th_hiII;
#N canvas 1 81 450 300 Partch_M 0;
#X obj 249 -130 osc~;
#X obj 319 23 *~;
#X obj 79 -188 r NOTE;
#X obj 319 57 outlet~;
#X obj 343 -139 inlet;
#X obj 81 -12 expr $f1 * 9/4;
#X text 238 -189 harry's Partch major chord tone - 3rd - 5th -7th -
9th - 11th;
#X obj 81 16 expr $f1 * 8/3;
#X obj 87 -43 expr $f1 * 7/4;
#X obj 88 -70 expr $f1 * 3/2;
#X obj 85 -92 expr $f1 * 5/4;
#X text 31 -94 3rd maj;
#X text 34 -70 5th;
#X text 37 -45 7th;
#X text 35 -12 9th;
#X text 34 15 11th;
#N canvas 575 79 450 300 ATACKDECAY 0;
#X obj 90 -20 bng 15 250 50 0 empty empty empty 17 7 0 10 -262144 -1
-1;
#X obj 153 33 delay 500;
#X obj 103 113 line~;
#X msg 149 62 0 200;
#X obj 89 5 t b b;
#X obj 186 -7 r duration;
#X obj 203 92 pack f f;
#X msg 92 54 1;
#X obj 266 62 r attack;
#X obj 81 -65 inlet;
#X obj 87 155 outlet~;
#X connect 0 0 4 0;
#X connect 1 0 3 0;
#X connect 2 0 10 0;
#X connect 3 0 2 0;
#X connect 4 0 7 0;
#X connect 4 1 1 0;
#X connect 5 0 1 1;
#X connect 6 0 2 0;
#X connect 7 0 6 0;
#X connect 8 0 6 1;
#X connect 9 0 0 0;
#X restore 343 -18 pd ATACKDECAY;
#X obj 247 -105 osc~;
#X obj 239 -80 osc~;
#X obj 236 -54 osc~;
#X obj 233 -21 osc~;
#X obj 279 -154 osc~;
#X connect 0 0 1 0;
#X connect 1 0 3 0;
#X connect 2 0 5 0;
#X connect 2 0 7 0;
#X connect 2 0 8 0;
#X connect 2 0 21 0;
#X connect 4 0 16 0;
#X connect 5 0 19 0;
#X connect 7 0 20 0;
#X connect 8 0 18 0;
#X connect 9 0 17 0;
#X connect 10 0 0 0;
#X connect 16 0 1 1;
#X connect 17 0 1 0;
#X connect 18 0 1 0;
#X connect 19 0 1 0;
#X connect 20 0 1 0;
#X connect 21 0 1 0;
#X restore 992 12 pd Partch_M;
#X text 1066 10 to trigger Partch chord;
#X obj 1001 -175 s toneBANG;
#X obj 378 -161 r toneBANG;
#X text 260 -247 press space bar to record sound;
#N canvas 1 79 450 300 help 0;
#X text 21 -227 THIS PATCH GETS THE FUNDAMENTAL FREQUENCY OF AN INPUT
SOUND AND BUILDS A SCALE OF ITS NATURAL HARMONICS Space bar pressed
starts recording the environment sound \, pressed again stops. The
sound is processed to etract the basic tone out of it and a sclae is
build using this tone as tonic . The keys from 0 to 9 give the tones
in one octave (with 3rd min/maj and 6th min/maj) \, keys Q W E R give
9th \, 10th maj 12th perfect and 2nd hi octave. Key P is to make the
Partch major chord!;
#X restore 748 -311 pd help;
#X text 1058 -317 Mick Mengucci & X 2012;
#X connect 1 0 5 0;
#X connect 2 0 60 0;
#X connect 2 1 3 0;
#X connect 3 0 6 0;
#X connect 4 0 3 1;
#X connect 6 0 25 0;
#X connect 7 0 8 0;
#X connect 8 0 10 0;
#X connect 9 0 7 0;
#X connect 9 0 16 0;
#X connect 10 0 54 0;
#X connect 11 0 10 1;
#X connect 12 0 13 0;
#X connect 13 0 11 0;
#X connect 16 0 15 0;
#X connect 17 0 4 0;
#X connect 19 0 48 0;
#X connect 19 0 47 0;
#X connect 20 0 19 1;
#X connect 24 0 19 0;
#X connect 26 0 56 1;
#X connect 27 0 19 0;
#X connect 29 0 19 0;
#X connect 30 0 28 0;
#X connect 32 0 19 0;
#X connect 33 0 19 0;
#X connect 34 0 19 0;
#X connect 35 0 19 0;
#X connect 36 0 19 0;
#X connect 37 0 19 0;
#X connect 38 0 19 0;
#X connect 39 0 19 0;
#X connect 40 0 19 0;
#X connect 43 0 42 0;
#X connect 44 0 43 0;
#X connect 45 0 43 1;
#X connect 46 0 19 0;
#X connect 47 0 49 1;
#X connect 48 0 49 0;
#X connect 49 0 42 0;
#X connect 49 0 50 0;
#X connect 50 0 21 0;
#X connect 50 0 21 1;
#X connect 50 0 51 0;
#X connect 52 0 53 0;
#X connect 54 0 0 0;
#X connect 56 0 27 0;
#X connect 56 1 29 0;
#X connect 56 2 24 0;
#X connect 56 3 32 0;
#X connect 56 4 33 0;
#X connect 56 5 34 0;
#X connect 56 6 36 0;
#X connect 56 7 35 0;
#X connect 56 8 37 0;
#X connect 56 9 38 0;
#X connect 56 10 39 0;
#X connect 56 11 40 0;
#X connect 56 12 46 0;
#X connect 56 13 57 0;
#X connect 56 14 58 0;
#X connect 57 0 19 0;
#X connect 58 0 19 0;
#X connect 61 0 56 0;
